<mxfile host="app.diagrams.net" modified="2023-08-08T01:07:03.643Z" agent="Mozilla/5.0 (Macintosh; Intel Mac OS X 10_15_7) AppleWebKit/537.36 (KHTML, like Gecko) Chrome/115.0.0.0 Safari/537.36" etag="HQHEsFcXHnCuwkuwlJbB" version="21.6.6" type="github">
  <diagram name="第 1 页" id="CiMwP2PX4JYPRJ08ywve">
    <mxGraphModel dx="970" dy="653" grid="1" gridSize="10" guides="1" tooltips="1" connect="1" arrows="1" fold="1" page="1" pageScale="1" pageWidth="827" pageHeight="1169" math="0" shadow="0">
      <root>
        <mxCell id="0" />
        <mxCell id="1" parent="0" />
        <mxCell id="78PZBRgPvVRQfRtg8AEz-1" value="trace_handler-&amp;gt;acquire_event" style="rounded=1;whiteSpace=wrap;html=1;fontFamily=Verdana;" parent="1" vertex="1">
          <mxGeometry x="120" y="300" width="220" height="60" as="geometry" />
        </mxCell>
        <mxCell id="78PZBRgPvVRQfRtg8AEz-2" value="evsel__process_lock_acquire" style="rounded=1;whiteSpace=wrap;html=1;fontFamily=Verdana;" parent="1" vertex="1">
          <mxGeometry x="120" y="20" width="220" height="60" as="geometry" />
        </mxCell>
        <mxCell id="Ggq4m4xaZtcjS2FID1MK-1" value="__mutex_lock_common" style="rounded=1;whiteSpace=wrap;html=1;fontFamily=Verdana;" vertex="1" parent="1">
          <mxGeometry x="160" y="400" width="220" height="60" as="geometry" />
        </mxCell>
        <mxCell id="Ggq4m4xaZtcjS2FID1MK-2" value="__mutex_lock" style="rounded=1;whiteSpace=wrap;html=1;fontFamily=Verdana;" vertex="1" parent="1">
          <mxGeometry x="160" y="120" width="220" height="60" as="geometry" />
        </mxCell>
      </root>
    </mxGraphModel>
  </diagram>
</mxfile>
